<?xml version="1.0" encoding="UTF-8"?>
<svg xmlns="http://www.w3.org/2000/svg" xmlns:xlink="http://www.w3.org/1999/xlink" width="20px" height="24px" viewBox="0 0 25 31" version="1.1">
<g id="surface1">
<path style=" stroke:none;fill-rule:nonzero;fill:rgb(0%,0%,0%);fill-opacity:1;" d="M 12.5 14.410156 C 8.527344 14.410156 5.296875 11.203125 5.296875 7.265625 C 5.296875 3.324219 8.527344 0.121094 12.5 0.121094 C 16.472656 0.121094 19.703125 3.324219 19.703125 7.265625 C 19.703125 11.207031 16.472656 14.410156 12.5 14.410156 Z M 12.5 1.367188 C 9.222656 1.367188 6.554688 4.011719 6.554688 7.265625 C 6.554688 10.519531 9.222656 13.164062 12.5 13.164062 C 15.777344 13.164062 18.445312 10.519531 18.445312 7.265625 C 18.445312 4.011719 15.777344 1.367188 12.5 1.367188 Z M 12.5 1.367188 "/>
<path style=" stroke:none;fill-rule:nonzero;fill:rgb(0%,0%,0%);fill-opacity:1;" d="M 12.496094 30.878906 C 7.964844 30.878906 3.695312 29.144531 0.472656 25.988281 C 0.347656 25.871094 0.28125 25.707031 0.285156 25.539062 C 0.308594 23.691406 0.738281 21.921875 1.5625 20.28125 C 3.648438 16.140625 7.835938 13.570312 12.496094 13.570312 C 19.152344 13.570312 24.632812 18.9375 24.714844 25.539062 C 24.71875 25.707031 24.652344 25.871094 24.527344 25.988281 C 21.304688 29.144531 17.035156 30.878906 12.496094 30.878906 Z M 1.546875 25.289062 C 4.507812 28.09375 8.386719 29.632812 12.496094 29.632812 C 16.613281 29.632812 20.492188 28.09375 23.453125 25.289062 C 23.238281 19.488281 18.378906 14.816406 12.496094 14.816406 C 8.316406 14.816406 4.558594 17.125 2.6875 20.839844 C 1.988281 22.230469 1.605469 23.726562 1.546875 25.289062 Z M 1.546875 25.289062 "/>
</g>
</svg>
