<?xml version="1.0" encoding="UTF-8"?>
<svg xmlns="http://www.w3.org/2000/svg" xmlns:xlink="http://www.w3.org/1999/xlink" width="24px" height="24px" viewBox="0 0 24 24" version="1.1">
<g id="surface1">
<path style=" stroke:none;fill-rule:nonzero;fill:rgb(0%,0%,0%);fill-opacity:1;" d="M 12 15.75 C 15.101562 15.75 17.625 12.554688 17.625 8.625 C 17.625 4.695312 15.101562 1.5 12 1.5 C 8.898438 1.5 6.375 4.695312 6.375 8.625 C 6.375 12.554688 8.898438 15.75 12 15.75 Z M 12 3 C 14.234375 3 16.125 5.574219 16.125 8.625 C 16.125 11.675781 14.234375 14.25 12 14.25 C 9.765625 14.25 7.875 11.675781 7.875 8.625 C 7.875 5.574219 9.765625 3 12 3 Z M 12 3 "/>
<path style=" stroke:none;fill-rule:nonzero;fill:rgb(0%,0%,0%);fill-opacity:1;" d="M 1.539062 17.011719 L 0.0390625 21.511719 C -0.0390625 21.742188 0 21.992188 0.140625 22.1875 C 0.28125 22.382812 0.507812 22.5 0.75 22.5 L 23.25 22.5 C 23.492188 22.5 23.71875 22.382812 23.859375 22.1875 C 24 21.992188 24.039062 21.742188 23.960938 21.511719 L 22.460938 17.011719 C 22.382812 16.777344 22.195312 16.597656 21.957031 16.527344 L 16.707031 15.027344 C 16.527344 14.976562 16.332031 14.996094 16.164062 15.078125 L 12 17.160156 L 7.835938 15.078125 C 7.667969 14.996094 7.472656 14.976562 7.292969 15.027344 L 2.042969 16.527344 C 1.804688 16.597656 1.617188 16.777344 1.539062 17.011719 Z M 7.425781 16.550781 L 11.664062 18.671875 C 11.875 18.777344 12.125 18.777344 12.335938 18.671875 L 16.574219 16.550781 L 21.164062 17.863281 L 22.210938 21 L 1.789062 21 L 2.835938 17.863281 Z M 7.425781 16.550781 "/>
</g>
</svg>
