<?xml version="1.0" encoding="UTF-8"?>
<svg xmlns="http://www.w3.org/2000/svg" xmlns:xlink="http://www.w3.org/1999/xlink" width="22px" height="22px" viewBox="0 0 25 25" version="1.1">
<g id="surface1">
<path style=" stroke:none;fill-rule:nonzero;fill:rgb(0%,0%,0%);fill-opacity:1;" d="M 8.183594 4.960938 C 7.460938 5.234375 6.800781 5.660156 6.230469 6.230469 C 4.898438 7.566406 4.324219 9.472656 4.699219 11.332031 C 4.738281 11.527344 4.914062 11.664062 5.105469 11.664062 C 5.132812 11.664062 5.164062 11.664062 5.191406 11.65625 C 5.414062 11.613281 5.5625 11.390625 5.515625 11.167969 C 5.195312 9.582031 5.683594 7.957031 6.816406 6.820312 C 7.304688 6.335938 7.867188 5.972656 8.480469 5.738281 C 8.695312 5.65625 8.804688 5.417969 8.722656 5.203125 C 8.640625 4.984375 8.398438 4.878906 8.183594 4.960938 Z M 10.15625 4.585938 C 10.109375 4.585938 10.054688 4.589844 10.007812 4.597656 C 9.78125 4.636719 9.621094 4.851562 9.660156 5.078125 C 9.695312 5.28125 9.867188 5.425781 10.0625 5.425781 C 10.085938 5.425781 10.109375 5.425781 10.132812 5.417969 L 10.15625 5.417969 C 10.386719 5.417969 10.574219 5.234375 10.574219 5.003906 C 10.574219 4.773438 10.386719 4.585938 10.15625 4.585938 Z M 10.15625 4.585938 "/>
<path style=" stroke:none;fill-rule:nonzero;fill:rgb(0%,0%,0%);fill-opacity:1;" d="M 17.035156 13.8125 C 17.617188 12.714844 17.929688 11.492188 17.929688 10.210938 C 17.929688 8.152344 17.125 6.214844 15.671875 4.757812 C 12.660156 1.75 7.765625 1.75 4.757812 4.757812 C 1.75 7.765625 1.75 12.660156 4.757812 15.667969 C 6.261719 17.175781 8.238281 17.925781 10.210938 17.925781 C 11.453125 17.925781 12.691406 17.628906 13.816406 17.035156 L 17.273438 20.496094 L 20.496094 17.269531 Z M 5.347656 15.078125 C 2.667969 12.394531 2.667969 8.03125 5.347656 5.347656 C 6.691406 4.007812 8.449219 3.335938 10.210938 3.335938 C 11.972656 3.335938 13.738281 4.007812 15.078125 5.347656 C 16.378906 6.644531 17.09375 8.375 17.09375 10.210938 C 17.09375 12.054688 16.378906 13.78125 15.078125 15.078125 C 12.394531 17.761719 8.03125 17.761719 5.347656 15.078125 Z M 21.832031 18.605469 L 21.082031 17.855469 L 17.863281 21.082031 L 18.613281 21.832031 C 19.054688 22.273438 19.636719 22.5 20.21875 22.5 C 20.804688 22.5 21.386719 22.273438 21.832031 21.832031 C 22.71875 20.945312 22.71875 19.496094 21.832031 18.605469 Z M 21.832031 18.605469 "/>
</g>
</svg>
